<svg width="12" height="8" viewBox="0 0 12 8" fill="none" xmlns="http://www.w3.org/2000/svg">
<path d="M11.8582 1.11194C11.862 0.938771 11.8118 0.768717 11.7145 0.625421C11.6172 0.482124 11.4776 0.372706 11.3152 0.312378C11.1529 0.252051 10.9758 0.243812 10.8085 0.288806C10.6412 0.3338 10.4922 0.429792 10.382 0.563437L6.01353 5.66273L1.64658 0.563437C1.57864 0.470988 1.49237 0.393565 1.39312 0.336015C1.29386 0.278465 1.18376 0.242029 1.06978 0.228988C0.955788 0.215947 0.840359 0.226582 0.730671 0.260227C0.620983 0.293872 0.51939 0.349803 0.43232 0.424516C0.345248 0.499229 0.274618 0.591116 0.224704 0.694421C0.174788 0.797727 0.146753 0.910226 0.14233 1.02487C0.137907 1.13952 0.157137 1.25385 0.198944 1.36069C0.24075 1.46753 0.304166 1.5646 0.385221 1.6458L5.3804 7.48402C5.45864 7.57571 5.55575 7.64933 5.66519 7.69981C5.77464 7.75029 5.89377 7.77643 6.0143 7.77643C6.13483 7.77643 6.25395 7.75029 6.3634 7.69981C6.47285 7.64933 6.57005 7.57571 6.64829 7.48402L11.6483 1.6458C11.7793 1.49831 11.8537 1.30915 11.8584 1.11194L11.8582 1.11194Z" fill="#F08660"/>
</svg>
